<?xml version="1.0" encoding="UTF-8"?>
<svg xmlns="http://www.w3.org/2000/svg" viewBox="0 0 5030 1724.12">
  <defs>
    <style>
      .cls-1 { fill: #fff; }
      .cls-2 { fill: #2b2b2b; }
    </style>
  </defs>
  <g id="Cell_4_3_Group"><path d="M2772.61,605.01c-.85,7.05.25,14.21-6.46,18.5-.9.57-1.44,1.57-1.43,2.65.23,20.34.34,31.74.34,34.21-.02,19.6,9.35,38.81,26.43,48.7,15.62,9.06,37,8.48,52.3-2.12,14.98-10.39,22.68-24.84,23.12-43.34,0-.41-.25-.78-.64-.92-20.9-7.32-26.56-36.12-4.76-47.18,10.04-5.09,23.61-2.1,30.74,6.61,9.08,11.07,7.21,24.98-2.18,34.97-2.61,2.78-6.03,4.54-10.23,5.29-1.11.21-1.98,1.09-2.15,2.21-.87,5.83-.56,12.28-2.39,18.47-12.07,40.91-64.56,58-98.08,29.77-15.72-13.23-23.58-30.5-23.57-51.81.02-22.79,0-34.55-.04-35.29-.02-.45-.17-.89-.45-1.25-.56-.75-1.52-1.7-2.88-2.86-4.66-3.98-4.47-10.37-4.8-15.86-.03-.48-.34-.89-.78-1.04-25.11-8.7-41.39-29.87-49.16-54.85-1.26-4.04-.78-7.74,1.43-11.09.64-.97.78-2.19.37-3.28-3.06-8.29-5.64-16.64-7.75-25.05-4.71-18.73-7.86-35.47-7.34-53.19.5-17.38,13.65-27.63,30.09-31.72.46-.12.89-.37,1.23-.71,3.59-3.73,3.51-7.12,9.82-8,13.34-1.86,20.09,14.75,10.23,23.39-5.01,4.39-12.8,3.81-17.27-1.19-1.69-1.9-2.98-2.1-5.25-1.79-4.49.62-8.54,2.85-12.13,6.68-4.24,4.52-6.28,10.8-6.1,18.84.51,23.93,6.97,48.62,14.81,71.48.08.23.28.4.51.47,4.33,1.11,7.24,3.78,8.74,7.99.57,1.61,2.76,6.68,6.57,15.21,10.04,22.52,38.94,34.94,58.86,15.82,5.03-4.83,8.62-9.26,10.79-13.3,2.74-5.11,5.35-10.97,7.84-17.6.69-1.84,1.99-3.86,3.89-6.07.43-.5.99-.88,1.61-1.1l4.27-1.56c.51-.19.85-.67.87-1.21,0-.12,1.91-6.87,5.71-20.24,4-14.03,6.8-26.79,8.42-38.27,2.45-17.42.63-34.25-20.87-37.03-1.1-.14-2.18.3-2.87,1.16l-1.76,2.22c-.11.12-.23.23-.38.31-5.79,3-11.02,2.42-15.7-1.73-9.47-8.4-1.59-24.61,10.23-22.63,4.89.82,8.15,3.19,9.81,7.12.27.64.83,1.12,1.51,1.29,4.58,1.1,9.05,2.86,13.38,5.28,12.71,7.08,18.69,18.07,17.94,32.96-.96,19.13-4.63,35.05-10.04,54.92-1.28,4.72-3.04,9.88-5.27,15.48-1.61,4.04,1.25,8.82,1.36,12.94.02.97-.12,1.94-.44,2.86-3.7,10.56-7.58,18.99-11.63,25.31-8.86,13.81-21.41,23.56-37.65,29.24-.4.14-.69.51-.74.93ZM2862.72,634.28c-1.8,5.62,1.4,11.68,7.17,13.53,5.76,1.85,11.9-1.21,13.7-6.83h0c1.8-5.62-1.4-11.68-7.17-13.53-5.76-1.85-11.9,1.21-13.7,6.83h0Z"/>
    <path d="M2841.83,440.74c-.1-.42.16-.85.58-.95.04-.01.09-.02.13-.02,2.24-.17,5,.72,8.03,1.48,9.16,2.32,15.68,7.75,19.56,16.29,6.68,14.7,11.85,29.86,18.5,44.47.16.35.58.5.93.34.1-.05.19-.12.26-.21,4.07-5.39,7.1-8.46,14.19-8.94,4.96-.33,11.19-.35,18.68-.07,3.27.11,5.55.74,6.84,1.86,4.41,3.85,4.94,9.78,4.18,15.5-1.18,8.91-9.06,12.29-17.01,14.14-3.49.81-7.54,1.7-12.15,2.66-.64.13-1.05.75-.92,1.38.04.2.14.39.27.54,5.48,6.19,10.16,12.91,14.02,20.16,4.04,7.6,4.4,17.07,4.45,27.3.12,29.16.54,58.51-.17,87.77-.14,5.76-.98,9.78-2.54,12.06-2.66,3.91-6.82,5.85-12.48,5.8-12.7-.12-19.95-.24-21.77-.34-.37-.02-.66-.34-.63-.71,0-.02,0-.05,0-.07l1.61-10.33c.08-.56.44-1.05.94-1.3,13.18-6.49,19.71-17.22,19.59-32.19-.23-28.45-34.83-44.17-56.66-25.09-3.08,2.69-6.11,6.89-9.09,12.61-3.69,7.05-3.28,16.25-1.57,23.48.09.4-.15.8-.54.9-.05.01-.11.02-.17.02h-64.23c-.48,0-.87-.39-.87-.87v-17.94c0-1.12.38-2.2,1.08-3.08l3.55-4.47c.09-.11.17-.23.23-.36,1.83-4.04,1.78-7.55,2.41-11.2.08-.41.35-.76.72-.93,6.1-2.79,11.98-6.25,17.63-10.37,5.17-3.77,9.97-8.56,14.4-14.38,9.13-11.98,15.24-24.46,18.34-37.43,1.3-5.41.26-8.14-1.08-12.8-.05-.18-.04-.36.01-.54l5.88-17.56c.12-.35.44-.59.81-.59h39.53c1.22,0,2.2-.99,2.2-2.21,0-.27-.05-.53-.14-.78-4.35-11.32-9.44-24.28-15.28-38.9-2.57-6.45-5.91-12.18-10.01-17.18-.8-.99-1.8-1.79-2.93-2.35l-5.58-2.79c-.61-.3-1.05-.85-1.21-1.51l-2.52-10.31ZM2842.42,588.2c.63.99,2.55,2.1,5.75,3.35.66.25,1.37.35,2.07.31,9.43-.72,20.1-1.04,32.01-.97,6.85.04,10.71-.88,14.08-6.4,1.09-1.78,1.74-4.08,1.97-6.89.39-4.76,1.36-9.51-1.12-13.03-5.37-7.6-11.97-3.89-19.59-2.41-14.5,2.79-23.73,4.91-27.69,6.34-4.44,1.6-7.28,4.34-8.53,8.21-1.4,4.35-1.05,8.18,1.03,11.5Z"/>
    <path d="M2675.9,440.2c.18,0,.33.15.33.33,0,.03,0,.07-.01.1l-2.77,10.52c-.25.94-.99,1.68-1.94,1.92-7.69,1.95-12.27,9.79-15.16,16.83-3.15,7.7-8.63,21.51-16.44,41.45-.45,1.15-.75,2.47-.89,3.96-.07.69.44,1.31,1.13,1.38.04,0,.08,0,.12,0h39.93c.42,0,.78.27.91.66l5.93,19c.09.29.07.59-.04.86-3,7.59-1.56,10.36.32,18.13.42,1.72,1.67,4.71,3.75,8.95,3.22,6.54,5.41,10.77,6.58,12.71,7.94,13.21,18.52,23.45,31.73,30.7,2.29,1.26,4.66,2.3,7.11,3.11.59.2,1.01.72,1.09,1.34l.94,7.76c.06.47.22.92.48,1.31l4.38,6.62c.45.68.69,1.47.69,2.28v18.4c0,.34-.27.61-.61.61h-81.95c-.97,0-1.77.79-1.77,1.77,0,.04,0,.08,0,.11.47,6.91,1.92,18.72-1.07,23.67-3.24,5.37-6.95,7.64-13.62,7.6-13.58-.07-23.78-.16-30.59-.25-4.71-.06-8.18-.68-10.42-1.88-5.96-3.2-8.1-10.38-8-16.76.26-19.07.43-48.49.5-88.25,0-2.35.01-4.48.01-6.37.02-9.73,3.13-18.53,8.74-26.5,3.63-5.16,7.2-9.67,10.72-13.53.34-.38.32-.97-.05-1.31-.14-.13-.31-.21-.5-.23-7.86-1.05-14.96-2.76-21.3-5.11-7.65-2.84-9.61-9.56-9.09-17.9.48-7.81,4.69-11.55,12.64-11.22,4.83.2,10.45.38,16.85.54,6.69.16,10.98,3.02,14.76,8.22.23.32.67.4.99.17.12-.08.21-.2.26-.34,4.04-10.84,8.41-22.37,13.13-34.58,5.99-15.55,13.64-27.08,32.2-26.81ZM2671.61,591.09c3.34-1.57,5.32-3.97,5.92-7.19,1.08-5.71-1.94-13.16-8.11-15.21-11.2-3.73-21.19-4.99-35.52-7.7-5.26-.98-13.2.63-13.72,7.21-1.03,13.15-.4,22.9,15.52,22.98,11.54.07,22.76.2,33.67.39.77.02,1.54-.15,2.24-.48Z"/></g>
</svg>