<?xml version="1.0" encoding="UTF-8"?>
<svg id="Layer_1" data-name="Layer 1" xmlns="http://www.w3.org/2000/svg" viewBox="0 0 179.26 182">
  <defs>
    <style>
      .cls-1 {
        fill: #010101;
      }
    </style>
  </defs>
  <g id="Cell_3_5_Group" data-name="Cell_3,5_Group">
    <path class="cls-1" d="M45.39,67.06l-2.14-.21c-1.33-.14-2.45-1.06-2.84-2.34-4.03-13.31-7.03-23.05-8.99-29.23C21.83,5.01,59.71-11.52,79.37,9.29c5.84,6.2,7.93,15.96,5.38,23.42-4.47,13.06-7.89,23.95-10.28,32.67-.12.45-.4.83-.78,1.09-.87.59-2.02.83-3.43.73-.65-.04-1.21.46-1.26,1.12,0,.04,0,.08,0,.12.34,8.21.47,18.07.36,29.57-.03,3.28-1.18,4.86-3.43,4.75-.47-.02-.91.21-1.17.6-.8,1.23-1.7,2.2-2.7,2.92-.56.4-1.22.62-1.91.63-5.09.06-9.93.17-14.52.33-7.55.26-8.32,5.43-7.42,11.6.11.72.73,1.26,1.46,1.26l15.38-.08c1.64,0,3.07,1.12,3.44,2.71v.04c.28,1.28-.55,2.53-1.82,2.79-.15.03-.31.05-.46.05-7.21.05-14.07.04-20.57-.04-9.06-.11-10.95,5.18-8.79,13.29.16.57.67.96,1.24.96h37.58c1.27,0,2.37.88,2.65,2.11l.19.84c.28,1.25-.49,2.49-1.74,2.77-.18.04-.36.06-.55.06-12.98-.16-27.49-.14-43.53.05-8.09.1-9.45,6.28-8.53,12.74.14,1.04,1.03,1.81,2.09,1.81h54.9c1.78,0,3.31,1.26,3.63,3l.08.36c.25,1.14-.48,2.27-1.62,2.52-.15.03-.3.05-.45.05l-61.41-.11c-2.81,0-5.17,2.1-5.51,4.89l-.03.24c-.31,2.19,1.22,4.21,3.41,4.51.18.03.36.04.54.04l91.35.25c1.68,0,3.11,1.21,3.39,2.87l.05.28c.26,1.33-.61,2.61-1.94,2.87-.16.03-.31.04-.47.04-27.12-.14-57.8-.16-92.03-.06-6.84.03-10.22-3.36-10.16-10.16.05-5.76,2.89-9.49,8.53-11.2.55-.16.88-.72.75-1.28-.33-1.47-1.23-3.37-1.18-5.17.23-8.04,4.38-12.79,12.43-14.27.35-.06.58-.4.51-.76,0-.02,0-.03-.01-.05-2.64-10.42.79-16.7,10.29-18.85.71-.16,1.18-.83,1.09-1.56-1.28-10.77,3.02-16.54,12.92-17.33.49-.05.86-.44.85-.92v-32.44c0-.47-.35-.86-.82-.9ZM57.36,61.39c5.58.06,9.21.11,10.9.15.58.02,1.1-.37,1.26-.93,2.1-7.48,4.7-15.5,7.79-24.06,3-8.3,4.14-15.51-1.99-22.66-4.34-5.08-10.57-7.84-17.38-7.92-6.81-.06-13.11,2.56-17.56,7.55-6.26,7.03-5.28,14.25-2.45,22.61,2.92,8.62,5.35,16.7,7.29,24.22.14.56.65.96,1.23.96,1.69,0,5.33.02,10.91.08ZM63.67,67.28c0-.19-.15-.34-.34-.34l-10.86-.02c-.19,0-.34.15-.34.34h0l-.06,33.73c0,.19.15.34.34.34l10.86.02c.19,0,.34-.15.34-.34h0s.06-33.73.06-33.73Z"/>
    <path class="cls-1" d="M106.88,73.72c1.29-2.69.21-8.41,4.51-11.49.77-.55,2.43-.85,4.98-.88,6.93-.1,11.08-.02,12.44.24,4.52.87,5.33,7.93,5.54,11.31.08,1.32.96,2.45,2.21,2.85l6.49,2.06c.52.16,1.09.06,1.51-.28,4.47-3.59,8.26-7.38,13.25-2.82,3.7,3.39,6.54,6.18,8.55,8.38,4.55,4.99.9,8.92-2.41,13.18-.43.56-.57,1.27-.39,1.94l1.6,5.83c.33,1.2,1.3,2.12,2.51,2.39,5.28,1.17,11.1-.13,11.44,7.55.13,3.02.18,6.36.15,10.03-.09,8.67-3.68,8.67-11.17,9.51-.94.11-1.75.72-2.11,1.61l-2.55,6.26c-.26.64-.15,1.38.3,1.91,1.98,2.39,3.44,4.48,4.4,6.28,2.88,5.43-9.12,15.5-12.44,17.56-3.87,2.4-8.06-2.54-10.91-4.34-.5-.31-1.1-.4-1.67-.25-2.74.73-6.44,1.33-8.38,3.47-.28.3-.44.68-.45,1.08-.21,4.44-.45,11.17-6.59,11.6-.68.04-5.09.1-13.23.16-7.28.05-7.23-5.73-7.35-11.1-.03-1.37-.92-2.57-2.22-2.98l-7.13-2.27c-.51-.16-1.06-.03-1.45.33l-4.11,3.78c-.32.3-.72.49-1.16.57-6.6,1.16-12.13-5.2-15.89-10.38-2.09-2.88-2.56-5.57-1.41-8.07.87-1.89,2.98-3.77,4.02-5.57.24-.42.34-.91.26-1.4-.43-2.67-1.34-5.11-2.75-7.3-.34-.52-.9-.85-1.51-.89-4.51-.33-10.39-.47-11.12-6.13-.61-4.75-.6-10.04.04-15.87.13-1.16.8-2.2,1.81-2.79,2.77-1.64,6.12-2.44,10.03-2.39.87,0,1.64-.55,1.9-1.37l1.99-6.23c.21-.63.08-1.32-.33-1.84l-3.53-4.49c-.32-.41-.55-.87-.68-1.37-1.86-7.31,6.6-13.57,12.43-17.53,4.17-2.84,8.5,2.24,11.53,4.1.43.27.97.31,1.43.11l5.94-2.48c.75-.32,1.35-.89,1.7-1.61ZM154.27,161.79l7.16-8.18c.89-1.01.87-2.54-.05-3.53l-3.75-4.07c-1.14-1.23-1.46-2.99-.83-4.54l4.4-10.81c.52-1.27,1.67-2.17,3.03-2.36l7.57-1.11c.68-.1,1.2-.66,1.23-1.34l.57-11.01c.03-.73-.49-1.36-1.21-1.47l-7.52-1.09c-1.69-.25-3.11-1.37-3.75-2.95l-4.59-11.46c-.27-.67-.17-1.44.26-2.04l4.95-6.72c.71-.96.56-2.3-.34-3.09l-7.69-6.74c-.44-.38-1.07-.41-1.55-.08l-6.46,4.59c-1.02.72-2.34.89-3.52.44l-10.37-3.96c-1.64-.62-2.81-2.08-3.05-3.82l-1.11-7.55c-.14-.98-.97-1.72-1.96-1.73l-9.92-.2c-1.12-.02-2.06.85-2.11,1.97l-.34,6.84c-.09,1.77-1.2,3.32-2.85,3.98l-12.07,4.83c-.49.2-1.05.12-1.48-.19l-7.78-5.73c-.31-.23-.74-.19-1.01.09l-8.22,8.6c-.43.43-.48,1.12-.13,1.62l4.9,6.91c.62.87.75,2.01.33,2.99-1.06,2.48-2.24,5.53-3.53,9.16-.48,1.33-1.48,2.59-3.02,3.77-.37.29-.82.45-1.28.48l-6.44.31c-1.59.07-2.83,1.43-2.75,3.02,0,0,0,0,0,0l.49,10.05c.03.78.64,1.41,1.42,1.48,4.81.47,9.12-.14,11.31,5,1.16,2.74,2.46,6.12,3.9,10.13.29.8.12,1.69-.44,2.34l-4.89,5.58c-.59.67-.57,1.67.04,2.33l7.83,8.51c.5.54,1.34.58,1.88.08.04-.03.07-.07.1-.11,6.27-7.18,11.51-4.57,19.07-1.06,4.22,1.97,5.01,7.37,4.96,11.48,0,.89.7,1.63,1.6,1.65l10.51.2c.96.02,1.78-.67,1.91-1.62l1.16-7.91c.22-1.55,1.26-2.86,2.71-3.44l10.92-4.36c1.19-.48,2.53-.31,3.56.45l7.44,5.48c.24.17.57.13.77-.09Z"/>
    <path class="cls-1" d="M149.68,120.1c0,16.02-12.99,29.01-29.01,29.01h0c-16.02,0-29.01-12.99-29.01-29.01h0c0-16.02,12.99-29.01,29.01-29.01h0c16.02,0,29.01,12.99,29.01,29.01h0ZM143.6,120.09c0-12.65-10.26-22.91-22.91-22.91s-22.91,10.26-22.91,22.91c0,12.65,10.26,22.91,22.91,22.91h0c12.65,0,22.91-10.26,22.91-22.91h0Z"/>
  </g>
</svg>